<svg xmlns="http://www.w3.org/2000/svg" viewBox="0 0 280 50" width="50%" height="100%" fill="white" stroke="none" fill-rule="nonzero">
  <g id="logo">
    <path id="S"
      d="M19.231 32.745c1.7.73 3.33 1.09 4.89 1.09 1.32 0 2.41-.25 3.27-.75.86-.5 1.29-1.25 1.29-2.24 0-.78-.28-1.36-.85-1.74-.57-.38-1.48-.71-2.75-1.01l-2.67-.61c-1.56-.35-2.96-.83-4.18-1.43-1.23-.61-2.24-1.49-3.05-2.65-.81-1.16-1.21-2.64-1.21-4.44 0-1.97.48-3.62 1.43-4.97.96-1.35 2.23-2.35 3.82-3.01 1.59-.66 3.31-.99 5.17-.99 1.43 0 2.85.2 4.28.59 1.43.39 2.71.96 3.84 1.72v5.86c-1-.62-2.24-1.16-3.74-1.62-1.49-.46-2.9-.69-4.22-.69-1.37 0-2.49.25-3.33.75-.85.5-1.27 1.25-1.27 2.24 0 .62.18 1.12.55 1.5.36.38.85.69 1.45.93.61.24 1.43.48 2.49.73l2.3.57c1.64.4 3.02.88 4.14 1.41 1.12.54 2.03 1.33 2.75 2.36.71 1.04 1.07 2.4 1.07 4.1 0 1.94-.47 3.6-1.41 4.99-.94 1.39-2.2 2.44-3.78 3.15-1.58.71-3.32 1.07-5.23 1.07-1.64 0-3.3-.27-4.97-.81a15.232 15.232 0 0 1-4.53-2.34v-6.42c1.27 1.04 2.75 1.93 4.45 2.66Z" />
    <path id="P"
      d="M58.071 11.815c1.43.78 2.55 1.86 3.35 3.23.81 1.37 1.21 2.92 1.21 4.65 0 1.78-.42 3.38-1.25 4.81-.84 1.43-2 2.55-3.49 3.35-1.5.81-3.19 1.21-5.07 1.21h-4.12v9.86h-5.9v-28.29h10.38c1.83 0 3.46.39 4.89 1.18Zm-9.39 11.79h4.17c.75 0 1.42-.17 2-.51.58-.34 1.03-.8 1.35-1.39.32-.59.48-1.25.48-1.98 0-1.02-.32-1.86-.95-2.5-.63-.64-1.47-.97-2.53-.97h-4.52v7.35Z" />
    <path id="A" d="m78.261 16.255-7.24 22.67h-6.3l9.87-28.29h9.15l9.7 28.29h-6.3l-7.24-22.67h-1.64Z" />
    <path id="C"
      d="M107.431 16.885c-1.4.69-2.51 1.71-3.33 3.07-.82 1.36-1.23 2.98-1.23 4.87 0 1.89.4 3.51 1.21 4.87a7.889 7.889 0 0 0 3.33 3.09c1.41.7 3 1.05 4.75 1.05 3.1 0 6.05-1.02 8.85-3.07v6.14c-1.43 1-2.96 1.71-4.59 2.14-1.63.43-3.24.65-4.83.65-2.75 0-5.24-.6-7.48-1.8-2.24-1.2-4.01-2.92-5.31-5.17-1.31-2.25-1.96-4.88-1.96-7.9 0-3.02.65-5.64 1.96-7.88s3.08-3.95 5.31-5.15c2.24-1.2 4.74-1.8 7.52-1.8 1.56 0 3.17.21 4.81.63 1.64.42 3.16 1.13 4.57 2.12v6.18c-2.8-2.05-5.74-3.07-8.81-3.07-1.78 0-3.37.34-4.77 1.03Z" />
    <path id="E" d="M130.101 38.935v-28.3h19.01v5.62h-13.16v5.54h9.04v5.62h-9.04v5.9h13.98v5.62h-19.83Z" />
    <path id="T" d="M178.821 16.255h-8.64v22.67h-5.94v-22.67h-8.65v-5.62h23.23v5.62Z" />
    <path id="I" d="M186.501 10.635h5.94v28.29h-5.94z" />
    <path id="M"
      d="m217.051 36.225-5.05-19.97h-1.65l-4.22 22.67h-6.11l5.88-28.29h10.09l4.157 15.552 4.163-15.552h10.09l5.87 28.29h-6.02l-4.31-22.67h-1.65l-5.05 19.97h-6.19Z" />
    <path id="E2" d="M247.381 38.935v-28.3h19.01v5.62h-13.16v5.54h9.04v5.62h-9.04v5.9h13.98v5.62h-19.83Z" />
  </g>
</svg>