<svg width="58" height="56" viewBox="0 0 58 56" fill="none" xmlns="http://www.w3.org/2000/svg">
  <path
    d="M58 14.369C58 13.106 57.4137 11.9765 56.5018 11.2368C56.4366 11.0167 56.3136 10.811 56.1326 10.6486L44.5522 0.321155C44.3206 0.115471 44.0202 0 43.709 0H14.291C13.9798 0 13.6794 0.115471 13.4478 0.321155L1.86735 10.6486C1.6864 10.811 1.56336 11.0131 1.49822 11.2332C0.586261 11.9729 0 13.1024 0 14.3654V23.1917C0 24.267 0.427029 25.2449 1.11824 25.9702C0.427029 26.6955 0 27.6734 0 28.7488V37.5751C0 38.6504 0.427029 39.6283 1.11824 40.3536C0.427029 41.0789 0 42.0568 0 43.1322V51.9585C0 54.1849 1.81668 56 4.05316 56H53.9505C56.1833 56 58.0036 54.1885 58.0036 51.9585V43.1322C58.0036 42.0568 57.5766 41.0789 56.8854 40.3536C57.5766 39.6283 58.0036 38.6504 58.0036 37.5751V28.7488C58.0036 27.6734 57.5766 26.6955 56.8854 25.9702C57.5766 25.2449 58.0036 24.267 58.0036 23.1917V14.3654L58 14.369ZM55.4668 28.7488V37.5751C55.4668 38.4087 54.7864 39.0907 53.9468 39.0907H4.05316C3.2172 39.0907 2.53323 38.4123 2.53323 37.5751V28.7488C2.53323 27.9152 3.21358 27.2332 4.05316 27.2332H53.9505C54.7864 27.2332 55.4704 27.9116 55.4704 28.7488H55.4668ZM4.05316 24.7109C3.2172 24.7109 2.53323 24.0325 2.53323 23.1953V14.369C2.53323 13.5354 3.21358 12.8534 4.05316 12.8534H53.9505C54.7864 12.8534 55.4704 13.5318 55.4704 14.369V23.1953C55.4704 24.0289 54.79 24.7109 53.9505 24.7109H4.05316ZM14.7759 2.52594H43.2241L51.9745 10.3275H6.02546L14.7759 2.52594ZM55.4668 51.9621C55.4668 52.7957 54.7864 53.4777 53.9468 53.4777H4.05316C3.2172 53.4777 2.53323 52.7993 2.53323 51.9621V43.1358C2.53323 42.3022 3.21358 41.6202 4.05316 41.6202H53.9505C54.7864 41.6202 55.4704 42.2986 55.4704 43.1358V51.9621H55.4668ZM11.3669 18.7821C11.3669 19.8899 10.4658 20.7885 9.35484 20.7885C8.24384 20.7885 7.34273 19.8899 7.34273 18.7821C7.34273 17.6743 8.24384 16.7758 9.35484 16.7758C10.4658 16.7758 11.3669 17.6743 11.3669 18.7821ZM7.34273 33.1655C7.34273 32.0577 8.24384 31.1592 9.35484 31.1592C10.4658 31.1592 11.3669 32.0577 11.3669 33.1655C11.3669 34.2733 10.4658 35.1719 9.35484 35.1719C8.24384 35.1719 7.34273 34.2733 7.34273 33.1655ZM11.3669 47.5453C11.3669 48.6531 10.4658 49.5516 9.35484 49.5516C8.24384 49.5516 7.34273 48.6531 7.34273 47.5453C7.34273 46.4375 8.24384 45.539 9.35484 45.539C10.4658 45.539 11.3669 46.4375 11.3669 47.5453ZM17.6747 18.7821C17.6747 19.8899 16.7736 20.7885 15.6626 20.7885C14.5516 20.7885 13.6505 19.8899 13.6505 18.7821C13.6505 17.6743 14.5516 16.7758 15.6626 16.7758C16.7736 16.7758 17.6747 17.6743 17.6747 18.7821ZM13.6505 33.1655C13.6505 32.0577 14.5516 31.1592 15.6626 31.1592C16.7736 31.1592 17.6747 32.0577 17.6747 33.1655C17.6747 34.2733 16.7736 35.1719 15.6626 35.1719C14.5516 35.1719 13.6505 34.2733 13.6505 33.1655ZM17.6747 47.5453C17.6747 48.6531 16.7736 49.5516 15.6626 49.5516C14.5516 49.5516 13.6505 48.6531 13.6505 47.5453C13.6505 46.4375 14.5516 45.539 15.6626 45.539C16.7736 45.539 17.6747 46.4375 17.6747 47.5453ZM23.2116 18.7821C23.2116 19.8899 22.3105 20.7885 21.1995 20.7885C20.0885 20.7885 19.1874 19.8899 19.1874 18.7821C19.1874 17.6743 20.0885 16.7758 21.1995 16.7758C22.3105 16.7758 23.2116 17.6743 23.2116 18.7821ZM19.1874 33.1655C19.1874 32.0577 20.0885 31.1592 21.1995 31.1592C22.3105 31.1592 23.2116 32.0577 23.2116 33.1655C23.2116 34.2733 22.3105 35.1719 21.1995 35.1719C20.0885 35.1719 19.1874 34.2733 19.1874 33.1655ZM23.2116 47.5453C23.2116 48.6531 22.3105 49.5516 21.1995 49.5516C20.0885 49.5516 19.1874 48.6531 19.1874 47.5453C19.1874 46.4375 20.0885 45.539 21.1995 45.539C22.3105 45.539 23.2116 46.4375 23.2116 47.5453Z"
    fill="white" />
</svg>